#!OML:ASF E:\Style3\Style3.ASF
:FULLY-SPECIFIED
:DEGREES
4665
root 0.359909 17.7693 1.91815 199.122 70.3552 545.881
lowerback -7.05006 -0.380541 -3.55643
upperback -7.24736 -0.0243369 -1.75704
thorax -3.55518 0.261934 0.161713
lowerneck -9.95572 4.98506 1.64711
upperneck 30.1994 12.4129 -11.1548
head 12.5448 5.08118 -2.65102
rclavicle -8.34896e-015 2.62396e-014
rhumerus 35.017 -8.46557 -45.3488
rradius 143.089
rwrist -39.1292
rhand -8.81393 12.2901
rfingers 7.12502
rthumb 17.1255 -16.9751
lclavicle -8.34896e-015 2.62396e-014
lhumerus -11.295 -34.8561 62.8435
lradius 120.161
lwrist 31.5867
lhand 20.2692 25.9235
lfingers 7.12502
lthumb 44.7858 49.507
rfemur -10.879 4.77248 23.9549
rtibia 13.2392
rfoot -15.4918 -22.2122
rtoes -13.0825
lfemur -11.2898 -22.3 -3.23544
ltibia 2.94201e-014
lfoot -3.3065 11.7419
ltoes -29.6456
4666
root 0.353164 17.7687 1.91733 199.245 70.2436 546.013
lowerback -7.05702 -0.337773 -3.49909
upperback -7.21593 0.029459 -1.67261
thorax -3.51937 0.286049 0.219597
lowerneck -9.79461 4.9225 1.65854
upperneck 30.1349 12.3629 -11.2995
head 12.493 5.0583 -2.71957
rclavicle 2.14687e-014 1.90833e-014
rhumerus 35.4608 -9.71855 -46.4231
rradius 143.835
rwrist -35.5357
rhand -11.8708 13.4916
rfingers 7.12502
rthumb 14.1815 -16.0043
lclavicle 2.14687e-014 1.90833e-014
lhumerus -11.4024 -35.1531 63.2072
lradius 120.221
lwrist 31.9479
lhand 19.8149 25.7524
lfingers 7.12502
lthumb 44.3626 49.4986
rfemur -10.8927 4.6975 24.0267
rtibia 13.2357
rfoot -15.5027 -22.2054
rtoes -13.1911
lfemur -11.3531 -22.3992 -3.1459
ltibia 2.14687e-014
lfoot -3.29324 11.7753
ltoes -29.9724
4667
root 0.346716 17.7676 1.91668 199.519 70.1362 546.29
lowerback -7.25049 -0.394868 -3.64494
upperback -7.15114 -0.0289598 -1.37153
thorax -3.34259 0.265035 0.611524
lowerneck -9.34414 4.92465 1.49625
upperneck 29.8727 12.4317 -11.5086
head 12.3056 5.086 -2.77117
rclavicle -2.51463e-014 2.3059e-014
rhumerus 36.1873 -10.6482 -47.3342
rradius 144.388
rwrist -31.7962
rhand -14.7909 14.8229
rfingers 7.12502
rthumb 11.3664 -14.849
lclavicle -2.51463e-014 2.3059e-014
lhumerus -11.7659 -35.2042 63.8603
lradius 120.315
lwrist 32.3411
lhand 19.2244 25.7355
lfingers 7.12502
lthumb 43.8119 49.6882
rfemur -10.9251 4.71073 24.1422
rtibia 13.243
rfoot -15.6218 -22.2045
rtoes -13.0769
lfemur -11.414 -22.4717 -2.99603
ltibia -5.40694e-014
lfoot -3.22917 11.8184
ltoes -30.4566
4668
root 0.340838 17.7666 1.91667 199.692 70.0505 546.44
lowerback -7.33445 -0.449878 -3.74132
upperback -7.09259 -0.0940206 -1.16756
thorax -3.2322 0.236849 0.874336
lowerneck -9.20313 4.95365 1.352
upperneck 29.7076 12.4769 -11.5368
head 12.2068 5.10045 -2.75267
rclavicle 6.40087e-014 1.74931e-014
rhumerus 36.9504 -11.6541 -48.4087
rradius 144.792
rwrist -28.0655
rhand -17.4859 16.4847
rfingers 7.12502
rthumb 8.76644 -13.3133
lclavicle 6.40087e-014 1.74931e-014
lhumerus -11.8085 -35.285 64.2413
lradius 120.241
lwrist 32.908
lhand 18.7949 25.7431
lfingers 7.12502
lthumb 43.4109 49.8422
rfemur -10.9723 4.7683 24.2114
rtibia 13.2322
rfoot -15.5132 -22.3531
rtoes -13.1932
lfemur -11.4933 -22.5327 -2.88878
ltibia -7.95139e-015
lfoot -3.27502 11.8777
ltoes -30.1844
4669
root 0.331859 17.7647 1.91502 199.812 69.9108 546.56
lowerback -7.25175 -0.442069 -3.67275
upperback -7.06214 -0.0933941 -1.11681
thorax -3.24565 0.2335 0.88875
lowerneck -9.2695 4.91764 1.34575
upperneck 29.759 12.4098 -11.4718
head 12.2294 5.07088 -2.73546
rclavicle -7.99114e-014 1.11319e-014
rhumerus 37.5657 -12.7355 -49.4234
rradius 145.174
rwrist -24.7214
rhand -20.6371 18.3506
rfingers 7.12502
rthumb 5.72474 -11.552
lclavicle -7.99114e-014 1.11319e-014
lhumerus -11.6626 -35.565 64.2717
lradius 120.196
lwrist 33.6302
lhand 18.6028 25.6097
lfingers 7.12502
lthumb 43.2314 49.7734
rfemur -10.9983 4.7018 24.2788
rtibia 13.2104
rfoot -15.4836 -22.414
rtoes -13.1785
lfemur -11.5871 -22.6525 -2.77629
ltibia -2.14687e-014
lfoot -3.3264 11.9179
ltoes -30.0209
